<svg xmlns="http://www.w3.org/2000/svg" width="48" height="48" viewBox="0 0 48 48" fill="none">
  <circle cx="24" cy="24" r="22" stroke="url(#g1)" stroke-width="2.5" fill="none"/>
  <path d="M16 28 C16 20, 24 12, 24 12 C24 12, 32 20, 32 28 C32 32, 28 36, 24 36 C20 36, 16 32, 16 28Z" 
        fill="url(#g1)" opacity="0.8"/>
  <path d="M20 30 C20 26, 24 20, 24 20 C24 20, 28 26, 28 30 C28 32, 26 34, 24 34 C22 34, 20 32, 20 30Z" 
        fill="#0f172a"/>
  <defs>
    <linearGradient id="g1" x1="0" y1="0" x2="48" y2="48">
      <stop offset="0%" stop-color="#06b6d4"/>
      <stop offset="100%" stop-color="#8b5cf6"/>
    </linearGradient>
  </defs>
</svg>
